<svg id="visual" viewBox="0 0 3840 500" width="3840" height="500" xmlns="http://www.w3.org/2000/svg" xmlns:xlink="http://www.w3.org/1999/xlink" version="1.1"><path d="M0 312L29.2 278.8C58.3 245.7 116.7 179.3 174.8 149.3C233 119.3 291 125.7 349.2 158.8C407.3 192 465.7 252 523.8 248.8C582 245.7 640 179.3 698.2 190C756.3 200.7 814.7 288.3 872.8 317C931 345.7 989 315.3 1047.2 275C1105.3 234.7 1163.7 184.3 1221.8 194.5C1280 204.7 1338 275.3 1396.2 318.5C1454.3 361.7 1512.7 377.3 1570.8 347C1629 316.7 1687 240.3 1745.2 233.8C1803.3 227.3 1861.7 290.7 1920 289.5C1978.3 288.3 2036.7 222.7 2094.8 199.5C2153 176.3 2211 195.7 2269.2 207.5C2327.3 219.3 2385.7 223.7 2443.8 227.8C2502 232 2560 236 2618.2 254.7C2676.3 273.3 2734.7 306.7 2792.8 298.7C2851 290.7 2909 241.3 2967.2 204.7C3025.3 168 3083.7 144 3141.8 158C3200 172 3258 224 3316.2 242.5C3374.3 261 3432.7 246 3490.8 257.8C3549 269.7 3607 308.3 3665.2 308.3C3723.3 308.3 3781.7 269.7 3810.8 250.3L3840 231L3840 0L3810.8 0C3781.7 0 3723.3 0 3665.2 0C3607 0 3549 0 3490.8 0C3432.7 0 3374.3 0 3316.2 0C3258 0 3200 0 3141.8 0C3083.7 0 3025.3 0 2967.2 0C2909 0 2851 0 2792.8 0C2734.7 0 2676.3 0 2618.2 0C2560 0 2502 0 2443.8 0C2385.7 0 2327.3 0 2269.2 0C2211 0 2153 0 2094.8 0C2036.7 0 1978.3 0 1920 0C1861.7 0 1803.3 0 1745.2 0C1687 0 1629 0 1570.8 0C1512.7 0 1454.3 0 1396.2 0C1338 0 1280 0 1221.8 0C1163.7 0 1105.3 0 1047.2 0C989 0 931 0 872.8 0C814.7 0 756.3 0 698.2 0C640 0 582 0 523.8 0C465.7 0 407.3 0 349.2 0C291 0 233 0 174.8 0C116.7 0 58.3 0 29.2 0L0 0Z" fill="#3b82f6" stroke-linecap="round" stroke-linejoin="miter"></path></svg>