<svg xmlns="http://www.w3.org/2000/svg" width="248.871" height="124.401" viewBox="0 0 248.871 124.401">
  <g id="Group_11" data-name="Group 11" transform="translate(-4133.812 -3005.5)">
    <path id="Path_17" data-name="Path 17" d="M96.577-.347c26.6,0,70.018-4.741,87.645,5.034,16.875,9.357,22.461,34.358,22.461,48.8,0,13.92-6.2,38.921-22.461,48.448-17.274,10.12-45.129,9.074-72.685,9.074-23.907,0-76.356-3.345-93.4-11.43-20.08-9.523-23.9-31.991-23.9-47.916C-5.762,35.971,5.789,15.8,25.91,6.015,42.513-2.057,72.246-.347,96.577-.347Z" transform="translate(4176 3006.996)" fill="#36e250"/>
    <path id="Path_18" data-name="Path 18" d="M21.562,16.855s-1.983,24.434-1.269,41.171S27.95,79.452,24.42,83.8c-6.327,7.792-4.078,9.289-13.588,3.535s-3.09-28.492,1.91-43.492S21.562,16.855,21.562,16.855Z" transform="matrix(-0.438, -0.899, 0.899, -0.438, 4129.804, 3142.627)" fill="#36e250"/>
  </g>
</svg>
